# Wavefront OBJ file automatically generated by Tiled2Unity

# Vertices (Count = 117)
v 0 -1 0
v -1 -1 0
v -1 0 0
v 0 0 0
v -2 -1 0
v -2 0 0
v -3 -1 0
v -3 0 0
v -4 -1 0
v -4 0 0
v -5 -1 0
v -5 0 0
v -12 -1 0
v -13 -1 0
v -13 0 0
v -12 0 0
v -14 -1 0
v -14 0 0
v -15 -1 0
v -15 0 0
v -16 -1 0
v -16 0 0
v -4 -2 0
v -5 -2 0
v -12 -2 0
v -13 -2 0
v -14 -2 0
v -15 -2 0
v -16 -2 0
v -4 -3 0
v -5 -3 0
v -15 -3 0
v -16 -3 0
v 0 -4 0
v -1 -4 0
v -1 -3 0
v 0 -3 0
v -11 -4 0
v -12 -4 0
v -12 -3 0
v -11 -3 0
v -13 -4 0
v -13 -3 0
v -15 -4 0
v -16 -4 0
v 0 -5 0
v -1 -5 0
v -8 -5 0
v -9 -5 0
v -9 -4 0
v -8 -4 0
v -15 -5 0
v -16 -5 0
v 0 -6 0
v -1 -6 0
v -3 -6 0
v -4 -6 0
v -4 -5 0
v -3 -5 0
v -15 -6 0
v -16 -6 0
v 0 -7 0
v -1 -7 0
v -10 -7 0
v -11 -7 0
v -11 -6 0
v -10 -6 0
v -13 -7 0
v -14 -7 0
v -14 -6 0
v -13 -6 0
v -15 -7 0
v -16 -7 0
v 0 -8 0
v -1 -8 0
v -2 -8 0
v -3 -8 0
v -3 -7 0
v -2 -7 0
v -9 -8 0
v -10 -8 0
v -9 -7 0
v -11 -8 0
v 0 -9 0
v -1 -9 0
v 0 -10 0
v -1 -10 0
v -2 -10 0
v -2 -9 0
v -3 -10 0
v -3 -9 0
v -4 -10 0
v -4 -9 0
v -5 -10 0
v -5 -9 0
v -6 -10 0
v -6 -9 0
v -7 -10 0
v -7 -9 0
v -8 -10 0
v -8 -9 0
v -9 -10 0
v -9 -9 0
v -10 -10 0
v -10 -9 0
v -11 -10 0
v -11 -9 0
v -12 -10 0
v -12 -9 0
v -13 -10 0
v -13 -9 0
v -14 -10 0
v -14 -9 0
v -15 -10 0
v -15 -9 0
v -16 -10 0
v -16 -9 0

# Texture cooridinates (Count = 60)
vt 0.3750153 0.6667074
vt 0.4999847 0.6667074
vt 0.4999847 0.9999593
vt 0.3750153 0.9999593
vt 0.5000153 0.6667074
vt 0.6249847 0.6667074
vt 0.6249847 0.9999593
vt 0.5000153 0.9999593
vt 0.2500153 0.6667074
vt 0.3749847 0.6667074
vt 0.3749847 0.9999593
vt 0.2500153 0.9999593
vt 1.525879E-05 0.6667074
vt 0.1249847 0.6667074
vt 0.1249847 0.9999593
vt 1.525879E-05 0.9999593
vt 0.1250153 4.070997E-05
vt 0.2499847 4.070997E-05
vt 0.2499847 0.3332927
vt 0.1250153 0.3332927
vt 0.3750153 4.070997E-05
vt 0.4999847 4.070997E-05
vt 0.4999847 0.3332927
vt 0.3750153 0.3332927
vt 0.5000153 0.333374
vt 0.6249847 0.333374
vt 0.6249847 0.666626
vt 0.5000153 0.666626
vt 0.6250153 0.6667074
vt 0.7499847 0.6667074
vt 0.7499847 0.9999593
vt 0.6250153 0.9999593
vt 0.2500153 4.070997E-05
vt 0.3749847 4.070997E-05
vt 0.3749847 0.3332927
vt 0.2500153 0.3332927
vt 0.7500153 0.333374
vt 0.8749847 0.333374
vt 0.8749847 0.666626
vt 0.7500153 0.666626
vt 0.1250153 0.333374
vt 0.2499847 0.333374
vt 0.2499847 0.666626
vt 0.1250153 0.666626
vt 0.3750153 0.333374
vt 0.4999847 0.333374
vt 0.4999847 0.666626
vt 0.3750153 0.666626
vt 0.6250153 0.333374
vt 0.7499847 0.333374
vt 0.7499847 0.666626
vt 0.6250153 0.666626
vt 1.525879E-05 4.070997E-05
vt 0.1249847 4.070997E-05
vt 0.1249847 0.3332927
vt 1.525879E-05 0.3332927
vt 0.8750153 0.333374
vt 0.9999847 0.333374
vt 0.9999847 0.666626
vt 0.8750153 0.666626

# Normal
vn 0 0 -1

# Groups (Count = 2)

g mesh_0001
f 1/1/1 2/2/1 3/3/1 4/4/1
f 2/5/1 5/6/1 6/7/1 3/8/1
f 5/5/1 7/6/1 8/7/1 6/8/1
f 7/5/1 9/6/1 10/7/1 8/8/1
f 9/9/1 11/10/1 12/11/1 10/12/1
f 13/13/1 14/14/1 15/15/1 16/16/1
f 14/17/1 17/18/1 18/19/1 15/20/1
f 17/5/1 19/6/1 20/7/1 18/8/1
f 19/9/1 21/10/1 22/11/1 20/12/1
f 23/21/1 24/22/1 11/23/1 9/24/1
f 25/21/1 26/22/1 14/23/1 13/24/1
f 26/21/1 27/22/1 17/23/1 14/24/1
f 28/21/1 29/22/1 21/23/1 19/24/1
f 30/21/1 31/22/1 24/23/1 23/24/1
f 32/21/1 33/22/1 29/23/1 28/24/1
f 34/25/1 35/26/1 36/27/1 37/28/1
f 38/1/1 39/2/1 40/3/1 41/4/1
f 39/29/1 42/30/1 43/31/1 40/32/1
f 44/21/1 45/22/1 33/23/1 32/24/1
f 46/21/1 47/22/1 35/23/1 34/24/1
f 48/33/1 49/34/1 50/35/1 51/36/1
f 52/21/1 53/22/1 45/23/1 44/24/1
f 54/21/1 55/22/1 47/23/1 46/24/1
f 56/33/1 57/34/1 58/35/1 59/36/1
f 60/21/1 61/22/1 53/23/1 52/24/1
f 62/21/1 63/22/1 55/23/1 54/24/1
f 64/25/1 65/26/1 66/27/1 67/28/1
f 68/1/1 69/2/1 70/3/1 71/4/1
f 69/5/1 72/6/1 60/7/1 70/8/1
f 72/21/1 73/22/1 61/23/1 60/24/1
f 74/21/1 75/22/1 63/23/1 62/24/1
f 76/33/1 77/34/1 78/35/1 79/36/1
f 80/1/1 81/2/1 64/3/1 82/4/1
f 81/21/1 83/22/1 65/23/1 64/24/1
f 84/21/1 85/22/1 75/23/1 74/24/1
f 86/21/1 87/22/1 85/23/1 84/24/1
f 87/5/1 88/6/1 89/7/1 85/8/1
f 88/5/1 90/6/1 91/7/1 89/8/1
f 90/5/1 92/6/1 93/7/1 91/8/1
f 92/5/1 94/6/1 95/7/1 93/8/1
f 94/5/1 96/6/1 97/7/1 95/8/1
f 96/5/1 98/6/1 99/7/1 97/8/1
f 98/5/1 100/6/1 101/7/1 99/8/1
f 100/5/1 102/6/1 103/7/1 101/8/1
f 102/5/1 104/6/1 105/7/1 103/8/1
f 104/5/1 106/6/1 107/7/1 105/8/1
f 106/5/1 108/6/1 109/7/1 107/8/1
f 108/5/1 110/6/1 111/7/1 109/8/1
f 110/5/1 112/6/1 113/7/1 111/8/1
f 112/5/1 114/6/1 115/7/1 113/8/1
f 114/9/1 116/10/1 117/11/1 115/12/1

g mesh_0002
f 23/37/1 24/38/1 11/39/1 9/40/1
f 25/41/1 26/42/1 14/43/1 13/44/1
f 26/45/1 27/46/1 17/47/1 14/48/1
f 28/37/1 29/38/1 21/39/1 19/40/1
f 30/49/1 31/50/1 24/51/1 23/52/1
f 32/37/1 33/38/1 29/39/1 28/40/1
f 44/37/1 45/38/1 33/39/1 32/40/1
f 46/37/1 47/38/1 35/39/1 34/40/1
f 52/37/1 53/38/1 45/39/1 44/40/1
f 54/37/1 55/38/1 47/39/1 46/40/1
f 56/21/1 57/22/1 58/23/1 59/24/1
f 60/37/1 61/38/1 53/39/1 52/40/1
f 62/37/1 63/38/1 55/39/1 54/40/1
f 72/53/1 73/54/1 61/55/1 60/56/1
f 74/37/1 75/38/1 63/39/1 62/40/1
f 76/21/1 77/22/1 78/23/1 79/24/1
f 81/53/1 83/54/1 65/55/1 64/56/1
f 84/37/1 85/38/1 75/39/1 74/40/1
f 86/57/1 87/58/1 85/59/1 84/60/1

